<svg id="Layer_1" data-name="Layer 1" xmlns="http://www.w3.org/2000/svg" viewBox="0 0 266.3 36.85"><defs><style>.cls-1{fill:#999;}</style></defs><path d="M144.08,149.47a51.47,51.47,0,0,0-3.51-6.24c-2.26-3.93-4.81-8.46-7.08-12.42-1.88-3.25-3.63-7.44-8.28-7.5-4.84-.07-6.45,4.2-8.21,7.29-5.57,9.8-17,29.53-17,29.53h5.26s10.87-19.24,16.27-29c.69-1.24,2.06-2.87,3.65-2.87,2.41,0,3.62,2.87,4.7,4.84,2.9,5.28,5.7,10.33,8.42,15.43.85,1.6,2.59,3.71,1.4,5.89-.78,1.42-2.34,1.33-4.56,1.33,0,0-21.46,0-21.46,0v4.35h19.5a45.78,45.78,0,0,0,6.45-.21c3.08-.58,4.75-3,5.19-6v-.77A12.41,12.41,0,0,0,144.08,149.47Z" transform="translate(-8.58 -123.31)"/><path d="M9.26,125.52H32.33L8.89,158.26a1.55,1.55,0,0,0-.31.93v1H35.66v-2.22H12.12l23.39-32.65a1.88,1.88,0,0,0,.36-1.07v-.91H9.26Z" transform="translate(-8.58 -123.31)"/><rect x="36.3" width="2.68" height="36.85"/><path d="M93.38,123.39a.89.89,0,0,0-.41.41L78.49,149.4a6.12,6.12,0,0,0-.38.77l-.33.82a10.46,10.46,0,0,0-.67-1.56L62.24,123.8a1,1,0,0,0-.43-.41,1.65,1.65,0,0,0-.59-.08H59.4v36.85h2.31V128.75c0-.47,0-1-.07-1.46l14.89,25.78a1.16,1.16,0,0,0,1,.68H78a1.12,1.12,0,0,0,1-.68l14.51-25.75c-.05.5-.08,1-.08,1.43v31.41H95.8V123.31H94A1.52,1.52,0,0,0,93.38,123.39Z" transform="translate(-8.58 -123.31)"/><path class="cls-1" d="M173.69,123.31a1.52,1.52,0,0,0-.58.08.93.93,0,0,0-.41.41l-14.48,25.6a6.88,6.88,0,0,0-.38.77l-.33.82a10.46,10.46,0,0,0-.67-1.56L142,123.8a1.93,1.93,0,0,0-.17-.21v4.46l14.46,25a1.17,1.17,0,0,0,1.05.68h.41a1.12,1.12,0,0,0,1-.68l14.51-25.75c-.05.5-.08,1-.08,1.43v31.41h2.34V123.31Z" transform="translate(-8.58 -123.31)"/><path class="cls-1" d="M206.54,123.31v2.21h-19.4v14.9h16.15v2.16H187.14v15.36h19.4v2.22H184.46V123.31Z" transform="translate(-8.58 -123.31)"/><path class="cls-1" d="M237.72,123.31v2.21h-19.4v14.9h16.14v2.16H218.32v15.36h19.4v2.22H215.63V123.31Z" transform="translate(-8.58 -123.31)"/><path class="cls-1" d="M274.88,123.31v2.26H261.94v34.59h-2.65V125.57h-13v-2.26Z" transform="translate(-8.58 -123.31)"/></svg>