<?xml version="1.0" standalone="no"?>
<!DOCTYPE svg PUBLIC "-//W3C//DTD SVG 20010904//EN"
 "http://www.w3.org/TR/2001/REC-SVG-20010904/DTD/svg10.dtd">
<svg version="1.0" xmlns="http://www.w3.org/2000/svg"
 width="320.000000pt" height="99.000000pt" viewBox="0 0 320.000000 99.000000"
 preserveAspectRatio="xMidYMid meet">

<g transform="translate(0.000000,99.000000) scale(0.100000,-0.100000)"
fill="#000000" stroke="none">
<path d="M510 868 c-24 -17 -85 -110 -222 -338 -104 -173 -193 -323 -199 -332
-9 -16 -4 -18 44 -18 l53 0 161 278 c89 152 171 289 183 305 16 20 30 27 55
27 43 0 52 -12 188 -255 104 -186 121 -231 94 -254 -9 -7 -99 -12 -263 -13
l-249 -3 -3 -43 -3 -43 273 3 c305 3 310 4 343 75 30 63 16 100 -126 339 -72
120 -140 230 -152 242 -51 56 -122 67 -177 30z"/>
<path d="M903 879 c-41 -12 -74 -59 -80 -112 -4 -34 2 -55 29 -107 66 -126
236 -405 267 -437 38 -40 90 -51 145 -32 45 16 66 44 194 263 l73 124 -3 81
-3 82 -129 -221 c-71 -121 -137 -225 -147 -230 -35 -19 -67 -11 -92 23 -58 79
-237 407 -237 434 0 52 4 53 272 53 l248 0 0 45 0 45 -252 -1 c-139 0 -267 -5
-285 -10z"/>
<path d="M1610 875 c0 -12 23 -15 121 -17 l121 -3 -122 -169 c-67 -93 -124
-175 -127 -183 -4 -10 23 -13 141 -13 123 0 146 2 146 15 0 13 -20 15 -120 15
-66 0 -120 2 -120 5 0 3 56 83 125 179 69 95 125 176 125 180 0 3 -65 6 -145
6 -121 0 -145 -2 -145 -15z"/>
<path d="M1990 690 c0 -171 2 -200 15 -200 13 0 15 29 15 200 0 171 -2 200
-15 200 -13 0 -15 -29 -15 -200z"/>
<path d="M2150 690 c0 -170 2 -200 15 -200 12 0 15 28 17 172 l3 173 78 -138
c44 -76 84 -136 90 -134 7 2 46 64 87 138 l75 134 3 -173 c2 -144 5 -172 17
-172 13 0 15 30 15 201 0 181 -2 200 -17 197 -9 -2 -52 -66 -97 -146 -73 -129
-82 -141 -94 -125 -8 10 -47 75 -88 146 -42 71 -81 127 -89 127 -13 0 -15 -31
-15 -200z"/>
<path d="M2822 873 c-18 -16 -222 -362 -222 -377 0 -3 11 -6 24 -6 22 0 38 23
121 171 124 218 120 217 217 39 38 -69 67 -132 66 -140 -3 -12 -28 -15 -146
-18 l-142 -3 0 -24 0 -25 145 0 c142 0 147 1 170 25 42 41 37 60 -73 250 -57
98 -82 125 -117 125 -13 0 -32 -8 -43 -17z"/>
<path d="M1440 337 c-47 -78 -87 -145 -89 -149 -1 -5 21 -8 50 -6 l52 3 39 63
c38 62 39 66 36 146 l-3 83 -85 -140z"/>
<path d="M1643 303 l38 -4 -34 -47 c-54 -76 -54 -72 0 -70 43 1 44 2 11 5 -21
2 -38 6 -38 9 0 3 18 29 40 59 l41 55 -48 -2 c-44 -1 -45 -2 -10 -5z"/>
<path d="M1773 245 c0 -38 2 -53 4 -32 2 20 2 52 0 70 -2 17 -4 1 -4 -38z"/>
<path d="M1860 308 c0 -9 41 -78 46 -78 3 0 -2 12 -10 28 -21 37 -36 58 -36
50z"/>
<path d="M1951 270 c-12 -22 -20 -40 -18 -40 7 0 48 72 44 76 -2 2 -14 -14
-26 -36z"/>
<path d="M2066 288 c-9 -12 -16 -32 -15 -43 0 -13 4 -7 12 15 11 32 15 35 51
35 34 0 41 -4 49 -28 19 -57 -41 -100 -85 -60 -11 10 -18 12 -18 4 0 -6 11
-16 24 -22 59 -27 112 29 84 88 -18 39 -78 45 -102 11z"/>
<path d="M2327 292 c-21 -23 -22 -62 -1 -88 15 -18 15 -18 5 3 -15 29 -14 68
2 81 6 6 28 12 47 15 l35 4 -36 1 c-24 1 -42 -4 -52 -16z"/>
<path d="M2491 248 c1 -35 4 -51 6 -35 6 36 26 34 58 -5 15 -19 22 -24 16 -11
-6 12 -16 25 -22 28 -7 5 -5 13 6 25 27 30 15 55 -28 58 l-37 3 1 -63z m67 30
c-2 -17 -11 -24 -30 -26 -24 -3 -28 0 -28 22 0 22 4 26 31 26 26 0 30 -3 27
-22z"/>
<path d="M2652 298 c-6 -6 -12 -17 -12 -22 0 -6 5 -3 11 7 6 11 22 17 45 17
46 0 66 -37 43 -78 -23 -42 -69 -37 -91 8 -20 39 -25 26 -6 -14 22 -50 87 -46
109 5 18 46 -4 83 -51 87 -19 2 -41 -3 -48 -10z"/>
<path d="M2821 270 c-1 -54 20 -91 52 -89 20 1 20 2 2 6 -32 8 -39 20 -46 76
l-6 52 -2 -45z"/>
<path d="M2913 260 c0 -30 2 -43 4 -27 2 15 2 39 0 55 -2 15 -4 2 -4 -28z"/>
<path d="M3001 243 c1 -38 4 -56 6 -41 2 15 12 29 21 31 15 4 15 5 0 6 -13 1
-18 10 -18 31 0 25 4 30 25 30 31 0 43 -24 24 -47 -12 -14 -12 -16 1 -11 20 6
25 35 10 53 -7 8 -25 15 -41 15 l-29 0 1 -67z"/>
<path d="M2398 233 c24 -9 13 -42 -15 -46 -26 -4 -26 -4 2 -3 25 1 31 6 33 29
3 21 -1 27 -15 26 -10 0 -13 -3 -5 -6z"/>
</g>
</svg>
